/vscmnt/brussel_pixiu_data/_data_brussel/112/vsc11236/PredSimResults/SUBJ10mtu3D/weighted-trackIG/worker_05.mot
version=1
nRows=9
nColumns=50
inDegrees=yes
endheader
                time	         pelvis_tilt	         pelvis_list	     pelvis_rotation	           pelvis_tx	           pelvis_ty	           pelvis_tz	       hip_flexion_r	     hip_adduction_r	      hip_rotation_r	        knee_angle_r	       ankle_angle_r	         mtp_angle_r	       hip_flexion_l	     hip_adduction_l	      hip_rotation_l	        knee_angle_l	       ankle_angle_l	         mtp_angle_l	    lumbar_extension	      lumbar_bending	     lumbar_rotation	 ercspn_r/activation	 intobl_r/activation	 extobl_r/activation	    abd_r/activation	    add_r/activation	hamstrings_r/activation	bifemsh_r/activation	glut_max_r/activation	iliopsoas_r/activation	rect_fem_r/activation	  vasti_r/activation	gastroc_r/activation	 soleus_r/activation	tib_ant_r/activation	 ercspn_l/activation	 intobl_l/activation	 extobl_l/activation	    abd_l/activation	    add_l/activation	hamstrings_l/activation	bifemsh_l/activation	glut_max_l/activation	iliopsoas_l/activation	rect_fem_l/activation	  vasti_l/activation	gastroc_l/activation	 soleus_l/activation	tib_ant_l/activation	
          0.00000000	         -5.12191812	         -2.95676162	         10.90681579	          0.00000000	          0.82662620	         -0.01640231	         29.14928414	         -1.27221794	         -8.53886220	         -4.28745691	          6.75383902	          0.25282686	        -12.21533941	         -3.12293646	          6.94561817	         -7.99560405	         10.00088125	         25.30949006	         -6.30127034	          1.08242573	         -4.06351159	          0.08752536	          0.16040241	          0.02103173	          0.01677148	          0.14827062	          0.03488560	          0.11557024	          0.01707597	          0.06941079	          0.01434252	          0.01197602	          0.00999999	          0.00999999	          0.26998560	          0.03864947	          0.00999999	          0.00999999	          0.04112118	          0.05058666	          0.02799561	          0.12509484	          0.03533380	          0.34854694	          0.00999999	          0.00999999	          0.26570131	          0.25355732	          0.01637262	
          0.01185619	         -5.18905735	         -2.76135013	         10.74261178	          0.01555711	          0.82486940	         -0.01587469	         29.21375290	         -1.09141265	         -7.54836736	         -5.98218317	          6.44983745	          0.24536280	        -12.27526570	         -2.92129875	          6.28473327	         -9.87347863	          9.51074152	         27.00146066	         -6.06824380	          1.48389592	         -4.22576089	          0.07308377	          0.13393619	          0.01756152	          0.01400420	          0.20255915	          0.03323371	          0.09650128	          0.07046722	          0.05795809	          0.01197602	          0.00999999	          0.01938143	          0.01875099	          0.27534396	          0.08276482	          0.00999999	          0.00999999	          0.03433623	          0.10109510	          0.02337637	          0.10445432	          0.02950376	          0.36010067	          0.00999999	          0.00999999	          0.22186088	          0.23965075	          0.01367115	
          0.02371239	         -5.23854042	         -2.57542098	         10.51843957	          0.03143099	          0.82327559	         -0.01529982	         29.07981866	         -0.91022438	         -6.53364149	         -7.54385052	          6.13718876	          0.23957237	        -12.16341427	         -2.71286478	          5.57054122	        -12.12955899	          8.90021007	         28.66548407	         -5.81536201	          1.91304262	         -4.36506859	          0.07054090	          0.11183686	          0.01466389	          0.05780328	          0.18570326	          0.04544973	          0.08669551	          0.08405370	          0.04839506	          0.00999999	          0.00999999	          0.01618352	          0.01565710	          0.31089720	          0.10202982	          0.00999999	          0.00999999	          0.02867079	          0.09844061	          0.01951929	          0.08721947	          0.02463567	          0.34859226	          0.00999999	          0.00999999	          0.18525408	          0.22272731	          0.01141543	
          0.03556858	         -5.27254675	         -2.39534531	         10.23436427	          0.04740013	          0.82199955	         -0.01461914	         28.78942613	         -0.70065128	         -5.59812719	         -8.84363632	          5.74402262	          0.22680216	        -11.81685964	         -2.49975566	          4.80565354	        -14.82455729	          8.11196146	         30.22885417	         -5.56498882	          2.35449638	         -4.47923235	          0.07746503	          0.09338390	          0.01224436	          0.09637016	          0.18794826	          0.04202559	          0.07239085	          0.10652638	          0.04040993	          0.00999999	          0.00999999	          0.01351325	          0.01307369	          0.32907698	          0.12536403	          0.00999999	          0.00999999	          0.02394014	          0.10776720	          0.01965393	          0.07282835	          0.02057081	          0.33002888	          0.00999999	          0.00999999	          0.15468735	          0.18753281	          0.00999999	
          0.04742478	         -5.29174437	         -2.22709287	          9.89450160	          0.06324710	          0.82116398	         -0.01384090	         28.43645394	         -0.46349811	         -4.76540173	        -10.04870875	          5.40602723	          0.21735902	        -11.19493522	         -2.29330131	          3.98038120	        -17.98333599	          7.14581107	         31.49265232	         -5.33586542	          2.81416330	         -4.56566490	          0.06885415	          0.07797566	          0.01022406	          0.11674529	          0.17906346	          0.04391044	          0.06044643	          0.10525854	          0.03374234	          0.00999999	          0.04166224	          0.01128358	          0.01091655	          0.34666300	          0.14571741	          0.00999999	          0.00999999	          0.01999004	          0.12006169	          0.02458312	          0.06081176	          0.01717665	          0.29881117	          0.00999999	          0.00999999	          0.12916411	          0.15659010	          0.00999999	
          0.05928097	         -5.29766782	         -2.07068128	          9.50092337	          0.07882860	          0.82085620	         -0.01298157	         28.04279596	         -0.20805461	         -4.02847952	        -11.17307228	          5.13850524	          0.20558986	        -10.28610195	         -2.10452579	          3.07956445	        -21.58370731	          6.02001451	         32.18750077	         -5.13985404	          3.28983617	         -4.62423238	          0.05749329	          0.06510976	          0.00999999	          0.12746746	          0.14951818	          0.04493041	          0.05047284	          0.08973365	          0.02817489	          0.00999999	          0.11818831	          0.00999999	          0.00999999	          0.35748081	          0.15834106	          0.00999999	          0.00999999	          0.01669171	          0.13922560	          0.02648941	          0.05077788	          0.01434252	          0.25247541	          0.00999999	          0.00999999	          0.10785217	          0.13075291	          0.00999999	
          0.07113717	         -5.29317822	         -1.91669262	          9.05125409	          0.09406383	          0.82118524	         -0.01207244	         27.56352978	          0.05253738	         -3.37514910	        -12.13241598	          5.00062898	          0.19339503	         -9.10717937	         -1.93769877	          2.09945829	        -25.54210892	          4.66460615	         32.17077218	         -4.98419799	          3.77061016	         -4.65204333	          0.04800696	          0.05436672	          0.00999999	          0.13064767	          0.12484784	          0.04637093	          0.04214487	          0.07661577	          0.02352606	          0.00999999	          0.17190456	          0.00999999	          0.00999999	          0.35628239	          0.16645085	          0.00999999	          0.00999999	          0.01393759	          0.15482017	          0.02244958	          0.04239959	          0.01197602	          0.21081724	          0.00999999	          0.00999999	          0.09005668	          0.10917882	          0.00999999	
          0.08299336	         -5.28076731	         -1.74918369	          8.54236077	          0.10893805	          0.82219830	         -0.01114256	         26.95227484	          0.30119203	         -2.78126419	        -12.85052908	          5.02600987	          0.18394379	         -7.70718493	         -1.79035677	          1.06219380	        -29.69701398	          2.91147599	         31.51704345	         -4.87003272	          4.23840352	         -4.64600191	          0.04008587	          0.04539627	          0.00999999	          0.13087474	          0.10424809	          0.04778640	          0.03519102	          0.06397426	          0.01964429	          0.00999999	          0.19530394	          0.00999999	          0.00999999	          0.34426575	          0.16849255	          0.00999999	          0.00999999	          0.01163791	          0.16522994	          0.02057080	          0.05484841	          0.00999999	          0.17603262	          0.00999999	          0.00999999	          0.07519742	          0.09116443	          0.00999999	
          0.09484955	         -5.26164467	         -1.55074618	          7.97322220	          0.12345584	          0.82384161	         -0.01021239	         26.20108588	          0.51765658	         -2.20866204	        -13.31379768	          5.19058552	          0.17916780	         -6.14161361	         -1.65250244	          0.00077295	        -33.91011811	          0.82753765	         30.06382109	         -4.79758039	          4.67286559	         -4.60443873	          0.03347174	          0.03790593	          0.00999999	          0.13810124	          0.08704726	          0.04662045	          0.02938454	          0.05341857	          0.01640300	          0.00999999	          0.18313238	          0.00999999	          0.00999999	          0.32181053	          0.17208306	          0.01637521	          0.00999999	          0.00999999	          0.15411246	          0.01717665	          0.04579848	          0.00999999	          0.14698743	          0.00999999	          0.00999999	          0.06278993	          0.07612240	          0.05026699	
